<svg width="87" height="42" viewBox="0 0 87 42" fill="none" xmlns="http://www.w3.org/2000/svg">
<path d="M44.8749 28.9545C46.1867 28.9545 46.2438 29.4107 46.2438 32.4893V36.9368C46.2438 39.6732 46.0727 40.4146 44.932 40.5287V40.8139H52.8573V40.5287C51.4314 40.4146 51.0322 39.6732 51.0322 36.9368V34.9976C51.0322 32.6592 52.1158 31.862 53.5975 31.862C54.2249 31.862 54.7382 31.919 55.0233 32.1471H55.1374V27.6997C53.1982 27.6427 51.7736 29.2967 51.1462 31.5768H51.0322V27.6427L44.8737 28.6122V28.9545H44.8749ZM34.3831 36.7657L34.0409 36.5946C33.4135 37.4501 32.3298 37.9064 30.9052 37.9064C28.909 37.9064 27.6555 36.2524 27.4274 33.573H34.1562C34.1562 33.4589 34.1562 32.7745 34.1562 32.6604C34.1562 29.6959 32.217 27.6427 29.2525 27.6427C25.8887 27.6427 22.9799 30.7213 22.9799 34.5426C22.9799 38.7049 25.4882 41.2144 28.568 41.2144C31.5326 41.2144 33.1866 39.6174 34.3843 36.7669L34.3831 36.7657ZM27.3691 32.0901C27.5402 29.4678 28.2816 28.3841 29.1942 28.3841C30.4489 28.3841 30.7911 31.0064 30.6771 33.0027H27.3703C27.3703 32.7175 27.3703 32.3753 27.3703 32.0901H27.3691ZM44.7038 7.05819C46.0726 7.05819 46.1867 7.7426 46.1867 10.5931V19.7731C46.1867 22.4525 46.0156 23.194 44.8179 23.308V23.5932H52.1741V23.308C51.0904 23.194 50.9193 22.4525 50.9193 19.7731V18.8606C51.4326 18.9747 52.06 19.0887 52.6874 19.0887C56.6786 19.0887 59.3022 16.1812 59.3022 12.3599C59.3022 8.08357 57.363 5.68813 54.6836 5.68813C53.2578 5.68813 52.1183 6.37254 50.9776 7.9695H50.9206V5.74516L44.7051 6.71475V7.05695L44.7038 7.05819ZM33.1854 7.05819C34.4971 7.05819 34.5542 7.51447 34.5542 10.5931V15.0405C34.5542 17.7769 34.3831 18.5184 33.2424 18.6325V18.9176H41.1677V18.6325C39.7418 18.5184 39.3426 17.7769 39.3426 15.0405V13.1014C39.3426 10.7629 40.4262 9.96571 41.9079 9.96571C42.5353 9.96571 43.0486 10.0227 43.3338 10.2509H43.4478V5.80343C41.5087 5.7464 40.084 7.4004 39.4567 9.68054H39.3426V5.7464L33.1841 6.71599V7.05819H33.1854ZM16.9913 7.05819C18.3031 7.05819 18.3031 7.51447 18.3031 10.5931V14.5843C18.3031 17.5488 19.5578 19.3169 22.2943 19.3169C24.0053 19.3169 25.3158 18.4043 26.0003 17.0925H26.0573V18.9176H32.2158V18.6325C30.961 18.5184 30.7899 17.7769 30.7899 15.0405V5.7464L24.6314 6.71599V7.05819C26.0573 7.05819 26.0573 7.51447 26.0573 10.5931V16.1242C25.7151 16.3523 25.2588 16.5234 24.7455 16.5234C23.89 16.5234 23.0915 15.896 23.0915 14.3561V5.7464L16.9901 6.71599V7.05819H16.9913ZM20.4692 35.8531L20.241 26.7301C20.184 23.8226 20.4692 23.3663 22.2372 23.1382V22.796H15.2232L11.3461 32.2042L8.43861 22.796H0.968345V23.1382C2.73641 23.3663 2.96455 23.7656 2.96455 26.616C2.79345 29.1255 2.73641 31.6338 2.56531 34.1433C2.16607 39.2182 1.59572 40.0166 0 40.53V40.8151H5.41703V40.53C3.8771 40.1878 3.42082 39.1041 3.42082 35.6833C3.42082 34.9989 3.42082 34.2004 3.47786 33.2878L3.76303 25.5336L9.23709 39.5033H9.29413L15.2815 25.0773L15.6237 35.6262C15.7378 39.6744 15.2815 40.3018 13.5134 40.53V40.8151H22.8076V40.53C21.3247 40.0737 20.5832 40.0166 20.4692 35.8544V35.8531ZM60.0982 2.0404C61.467 2.0404 61.524 2.49668 61.524 5.34716V15.0405C61.524 17.7769 61.3529 18.5184 60.2693 18.6325V18.9176H67.5684V18.6325C66.5418 18.5184 66.3137 17.7769 66.3137 15.0405V0.785645L60.0982 1.6982V2.0404ZM79.7701 14.8694L79.4279 14.6983C78.8005 15.5538 77.7168 16.0101 76.2922 16.0101C74.296 16.0101 73.0425 14.3561 72.8144 11.6767H79.5432C79.5432 11.5627 79.5432 10.8783 79.5432 10.7642C79.5432 7.79964 77.604 5.7464 74.6395 5.7464C71.2757 5.7464 68.3669 8.82502 68.3669 12.6463C68.3669 16.8086 70.8752 19.3181 73.955 19.3181C76.9196 19.3181 78.5736 17.7211 79.7713 14.8707L79.7701 14.8694ZM50.9181 8.88205C51.2033 8.53985 51.6595 8.19764 52.344 8.19764C53.8839 8.19764 54.6253 10.422 54.6253 13.3295C54.6253 15.9518 54.055 18.4614 52.401 18.4614C51.6025 18.4614 50.9181 17.834 50.9181 15.6109V8.88205ZM42.7076 38.4184C41.738 38.4184 41.0536 37.7911 41.0536 35.682V29.0673H43.733V28.611H41.0536V25.2472L34.8381 28.611V29.0673H36.264V36.8215C36.264 39.8431 37.6898 41.2119 40.2551 41.2119C42.2513 41.2119 43.6189 40.0142 44.1893 38.2473L43.9611 38.0762C43.6189 38.3044 43.1056 38.4184 42.7064 38.4184H42.7076ZM83.4773 32.6592C80.969 31.5185 80.2846 31.1763 80.2846 30.0939C80.2846 29.0115 81.1972 28.3829 82.2238 28.3829C82.7371 28.3829 83.3074 28.4969 83.7637 28.7821C84.6763 29.2954 85.3036 30.322 85.6459 31.9178H86.0451V28.2688C84.9044 27.8696 83.8208 27.6414 82.3391 27.6414C79.2034 27.6414 76.9221 29.6947 76.9221 32.317C76.9221 33.971 77.4924 35.2245 79.8866 36.3652C82.168 37.4489 83.4786 37.9051 83.4786 39.0446C83.4786 40.0712 82.3949 40.5275 81.3112 40.5275C80.7409 40.5275 80.2276 40.4134 79.7713 40.1853C78.7447 39.672 77.8892 38.4742 77.3188 36.5363H76.9196V40.1853C78.0603 40.8126 79.713 41.2119 81.0248 41.2119C84.2175 41.2119 86.67 39.5579 86.67 36.9926C86.67 35.1104 86.1567 33.914 83.4773 32.6592ZM72.3581 37.9051C70.2478 37.9051 68.3669 35.8519 68.595 32.317C68.6521 29.9786 70.0779 28.3829 71.4455 28.3829C73.0425 28.3829 73.9538 30.5502 74.4101 32.8303H74.8093L74.7523 28.2688C74.0679 27.8696 72.7561 27.6414 71.8448 27.6414C67.5114 27.6414 64.3187 30.3208 64.3187 34.4843C64.3187 38.7607 66.884 41.2131 70.0209 41.2131C72.7573 41.2131 74.4113 39.6162 75.6661 36.7087L75.3809 36.5375C74.6965 37.3931 73.6699 37.9064 72.3593 37.9064L72.3581 37.9051ZM62.4936 36.9926V27.6414L56.3351 28.554V28.8962C57.6469 28.8962 57.704 29.5806 57.704 32.4311V36.9926C57.704 39.672 57.5899 40.4134 56.4492 40.5275V40.8126H63.7484V40.5275C62.6647 40.4134 62.4936 39.672 62.4936 36.9926ZM72.7573 10.1926C72.9284 7.57026 73.6699 6.48661 74.5824 6.48661C75.8372 6.48661 76.1794 9.10895 76.0653 11.1052H72.7586C72.7586 10.82 72.7586 10.4778 72.7586 10.1926H72.7573ZM57.1336 23.592C57.1336 25.1889 58.2173 26.3854 59.87 26.3854C61.4099 26.3854 62.5494 25.1877 62.5494 23.592C62.5494 21.995 61.4087 20.8556 59.87 20.8556C58.216 20.8556 57.1336 21.9963 57.1336 23.592ZM8.09641 1.4713C9.63634 1.58537 11.7454 2.72606 11.7454 6.66019C11.7454 10.5943 9.57806 12.1913 8.09641 12.5335V1.4713ZM0.968345 18.9201H10.5476V18.6349C8.60848 18.4068 8.09517 17.9505 8.09517 15.043V12.9898C13.4552 12.8757 16.3056 10.5943 16.3056 6.37502C16.3056 2.72606 13.8532 0.900956 9.06351 0.900956H8.09393H6.95324H3.13317H0.965865V1.18613C2.73393 1.41426 3.13317 1.87054 3.13317 4.72102V15.0418C3.13317 17.9493 2.73393 18.4056 0.965865 18.6337V18.9189L0.968345 18.9201Z" fill="#3B2351"/>
</svg>
